<?xml version="1.0" encoding="UTF-8"?>
<svg version="1.1" xmlns="http://www.w3.org/2000/svg" width="3000" height="3000">
<path d="M0 0 C3.88976417 -0.00238712 7.77951647 -0.00770412 11.66927719 -0.01329041 C44.00135571 -0.04726917 76.23226772 0.49159676 108.51586533 2.31007385 C109.21193264 2.34888546 109.90799995 2.38769707 110.62516022 2.42768478 C118.84530135 2.88898994 127.05632263 3.43952682 135.26586533 4.06007385 C136.37933334 4.14277527 137.49280136 4.22547668 138.64001083 4.3106842 C258.06340974 13.24860164 376.39089368 33.64906664 700.51586533 137.31007385 C701.15147385 137.57608398 701.78708237 137.84209412 702.44195175 138.11616516 C729.07993975 149.27958116 755.37684631 161.13374815 781.34496689 173.77540588 C784.39181824 175.2500369 787.44724594 176.70450847 790.50805283 178.1499176 C810.12852354 187.4168829 829.24274036 197.45547568 848.08227158 208.2202301 C852.1244432 210.52872291 856.18744555 212.79152621 860.28124619 215.00709534 C861.71779582 215.79658361 863.15049459 216.59334983 864.57214063 217.40937012 C868.48614456 219.65096875 872.41018483 221.75320771 876.4820528 223.69473743 C888.95867149 230.0271788 888.95867149 230.0271788 891.52211833 235.43146873 C892.99309857 241.51683051 892.27852945 247.68734176 891.78319931 253.86158752 C891.68878719 255.96684629 891.60463653 258.07258563 891.52976513 260.17862988 C891.3555621 264.77523822 891.13130263 269.36584697 890.87522125 273.95859909 C890.47642218 281.51313744 890.32137785 289.06199589 890.21560287 296.62565613 C890.19685335 297.94136898 890.17810382 299.25708182 890.15878612 300.61266476 C890.13001008 302.64581668 890.10144014 304.67897029 890.07356082 306.71213472 C889.96356106 314.56584233 889.79554245 322.4182181 889.62672043 330.27084351 C889.59498488 331.76094602 889.56328294 333.25104925 889.53161401 334.74115318 C889.48332553 337.01073906 889.43496286 339.28032325 889.38638506 341.54990296 C889.21793658 349.42146799 889.05513179 357.29314764 888.89235681 365.16483166 C888.60140676 379.22643462 888.30577692 393.28793502 888.0073204 407.34938049 C887.71966061 420.90236924 887.43536708 434.45542311 887.15478134 448.00856018 C887.13742477 448.84691228 887.1200682 449.68526439 887.10218567 450.5490211 C887.08485528 451.3861328 887.06752488 452.2232445 887.04966933 453.08572322 C886.72687213 468.6769671 886.40117294 484.26814914 886.07400446 499.85930187 C885.95965081 505.31141441 885.84608778 510.76354308 885.73277092 516.21567726 C885.59445112 522.86762715 885.45439902 529.5195383 885.31234796 536.17140958 C885.24028545 539.54713715 885.16906961 542.92287601 885.09932327 546.29865265 C884.74031676 563.64354169 884.21332586 580.97540327 883.51586533 598.31007385 C881.77026612 597.99891656 880.02497861 597.6860104 878.27982235 597.37237835 C877.30788187 597.19831862 876.33594139 597.02425889 875.33454818 596.84492463 C871.58328715 596.13311526 867.90720969 595.22374983 864.2182579 594.24488831 C863.45893778 594.04699927 862.69961765 593.84911024 861.91728783 593.64522457 C859.41396279 592.99179569 856.91219821 592.33259037 854.41039658 591.6733551 C852.6024723 591.200235 850.7944506 590.72748707 848.98633957 590.25508118 C844.11206076 588.98051105 839.2391002 587.70096827 834.3663826 586.42044449 C829.26736601 585.08129621 824.1672091 583.74650571 819.06713486 582.41139221 C812.71544334 580.74832812 806.36388831 579.08474881 800.0128746 577.4190979 C786.03186331 573.75252926 772.04762661 570.09853726 758.06063271 566.45485878 C751.9436329 564.86119743 745.8269682 563.26625023 739.71026707 561.67144299 C734.81696816 560.39570486 729.92350565 559.12060127 725.02968979 557.84684753 C720.44388052 556.65315777 715.85863545 555.45732469 711.27381325 554.25984955 C709.59070926 553.82065871 707.90739986 553.38225421 706.22387505 552.94467926 C703.9357366 552.34985629 701.64832476 551.75231729 699.36108017 551.15406799 C698.68973447 550.98024755 698.01838877 550.8064271 697.32669926 550.62733936 C694.94344251 550.00162137 692.72647859 549.41538048 690.51586533 548.31007385 C690.60150742 547.03929993 690.68714951 545.768526 690.77538681 544.45924377 C695.06274836 480.41687558 694.83132562 417.34371001 690.51586533 353.31007385 C689.93315872 353.12378418 689.35045212 352.93749451 688.75008774 352.74555969 C684.27919978 351.29054209 679.98834758 349.73843733 675.74242783 347.70069885 C674.68958603 347.20142883 673.63674423 346.70215881 672.55199814 346.1877594 C671.42632431 345.65062317 670.30065048 345.11348694 669.14086533 344.56007385 C587.56763582 306.12648014 501.3872272 276.3128757 96.22961044 202.46437073 C93.55292098 202.31218075 90.87669093 202.15328962 88.20043564 201.9936676 C29.2569385 198.54846443 -30.55401217 198.74092438 -89.48413467 202.31007385 C-91.08324692 202.40481995 -91.08324692 202.40481995 -92.71466446 202.5014801 C-200.56391454 208.9225069 -307.2049764 225.22882567 -506.48413467 276.31007385 C-507.34557083 276.56963867 -508.20700699 276.82920349 -509.09454727 277.09663391 C-520.94269568 280.67733125 -532.72929784 284.43460009 -544.48413467 288.31007385 C-545.45548355 288.63020447 -546.42683243 288.95033508 -547.42761612 289.28016663 C-595.60840841 305.18886518 -642.91823705 322.92055454 -689.61694717 342.75538635 C-690.23969025 343.01975494 -690.86243332 343.28412354 -691.50404739 343.5565033 C-694.35624445 344.76852072 -697.20565237 345.98649361 -700.05127335 347.21388245 C-701.0152504 347.62718811 -701.97922745 348.04049377 -702.97241592 348.46632385 C-704.21825455 349.00482971 -704.21825455 349.00482971 -705.48926163 349.55421448 C-707.48413467 350.31007385 -707.48413467 350.31007385 -709.48413467 350.31007385 C-714.39775328 432.17446961 -702.02289792 515.42171846 -662.83960342 798.1733551 C-662.71427231 798.95990479 -662.58894119 799.74645447 -662.45981216 800.55683899 C-661.92541692 803.85045106 -661.32242301 807.08122752 -660.48413467 810.31007385 C-600.15324571 826.6524423 -539.82123207 842.9906403 -479.48413467 859.31007385 C-478.69362213 859.52388954 -477.90310959 859.73770523 -477.08864212 859.95800018 C-393.5572058 882.55132386 -310.00752845 905.07680255 -226.43500137 927.51766968 C-223.4886303 928.30886663 -220.54228641 929.10016472 -217.59595108 929.89149475 C-151.94790513 947.52305027 -86.26994832 965.04085568 -20.57308578 982.48960876 C-16.61870464 983.53994318 -12.66439488 984.59054622 -8.71008492 985.64114857 C42.67355055 999.29266493 94.07527609 1012.87460861 145.51586533 1026.31007385 C146.75580875 1026.63393192 146.75580875 1026.63393192 148.02080154 1026.96433258 C187.93778673 1037.38855055 227.88204299 1047.70235318 267.87563324 1057.82896423 C270.44652849 1058.48001507 273.01729289 1059.13158048 275.5880394 1059.78321838 C300.52920581 1066.1028646 325.51062688 1072.24912805 350.51586533 1078.31007385 C345.7920342 1117.76878894 320.59211128 1159.93983297 300.18676376 1193.54933167 C298.52876887 1196.28875397 296.89886246 1199.04327259 295.27367783 1201.80226135 C288.47983206 1213.25057136 281.23554848 1224.35821451 273.76586533 1235.37257385 C273.32982986 1236.01566498 272.8937944 1236.6587561 272.44454575 1237.32133484 C264.10627375 1249.59525077 255.51489191 1261.68356087 246.70336533 1273.62257385 C246.11643906 1274.41816711 245.52951279 1275.21376038 244.92480087 1276.03346252 C231.72594354 1293.87410362 218.0310754 1311.31623911 203.99242783 1328.5014801 C202.68538992 1330.10242865 201.38163177 1331.70605361 200.07836533 1333.31007385 C195.64934333 1338.75144373 191.14909316 1344.1265678 186.60351181 1349.47047424 C183.67277992 1352.92186073 180.79857302 1356.41243576 177.95336533 1359.93507385 C174.12333374 1364.64580789 170.07712369 1369.11492503 165.96508408 1373.5796051 C163.65525951 1376.15467269 161.4834352 1378.79261748 159.32836533 1381.49757385 C154.82558867 1387.08390638 149.9521975 1392.28069506 145.0073204 1397.4768219 C141.31718166 1401.35857999 137.74097514 1405.31173304 134.23070908 1409.35670471 C131.49890458 1412.46848828 128.66546201 1415.48201529 125.82836533 1418.49757385 C121.76834643 1422.82673824 117.7212518 1427.16598711 113.71068954 1431.54103088 C109.17097038 1436.49251595 104.57510138 1441.34254992 99.74633408 1446.0171051 C97.99835896 1447.81406025 96.40371366 1449.61970142 94.79027939 1451.53126526 C88.82896711 1458.35890514 82.30587213 1464.66357455 75.89477158 1471.0639801 C74.4664794 1472.49294713 73.0383356 1473.92206246 71.61033249 1475.35131836 C68.62725857 1478.33586072 65.64239871 1481.31860209 62.65624619 1484.30006409 C58.84573893 1488.1048746 55.03973947 1491.91415765 51.23507404 1495.72480869 C48.2899317 1498.67357974 45.342393 1501.61994618 42.39414406 1504.56561089 C40.99051263 1505.96857943 39.587612 1507.37227956 38.18548393 1508.77675056 C24.94731016 1522.03219219 24.94731016 1522.03219219 19.00962448 1527.03649902 C16.71093715 1528.99635334 14.62185538 1531.14716515 12.51586533 1533.31007385 C8.34387829 1537.52671518 4.02716897 1541.46378309 -0.48413467 1545.31007385 C-1.98573183 1546.62074629 -3.48576424 1547.93321382 -4.98413467 1549.24757385 C-6.15080134 1550.26840719 -7.31746801 1551.28924052 -8.48413467 1552.31007385 C-18.93462113 1547.67376691 -28.16852095 1538.1744438 -36.80298233 1530.74855042 C-38.53552294 1529.26610352 -40.27991165 1527.79865168 -42.02710342 1526.33351135 C-48.66945845 1520.74047293 -54.95801373 1514.97328078 -61.03100967 1508.7671051 C-63.15831253 1506.63641482 -65.32363982 1504.6421413 -67.60913467 1502.68507385 C-74.13946332 1497.08955707 -80.01558352 1490.93114399 -85.60522842 1484.4077301 C-87.81040764 1481.94581485 -90.13300145 1479.63283745 -92.48413467 1477.31007385 C-96.03331624 1473.79830835 -99.40381925 1470.21998484 -102.64819717 1466.42726135 C-104.83619637 1463.9040793 -107.0970658 1461.45452866 -109.35913467 1458.99757385 C-113.42953523 1454.53484553 -117.28590377 1449.94749385 -121.07788467 1445.24757385 C-123.78192741 1441.94653466 -126.56539658 1438.72255712 -129.35913467 1435.49757385 C-133.81245619 1430.34039245 -138.0927365 1425.07880935 -142.27099991 1419.69703674 C-145.21963751 1415.90307747 -148.22371069 1412.16201641 -151.27124405 1408.44703674 C-158.2674849 1399.91803958 -164.93489089 1391.18527425 -171.48413467 1382.31007385 C-172.61945843 1380.77745294 -173.75487802 1379.24490302 -174.89038467 1377.7124176 C-182.83746497 1366.97120883 -190.71229977 1356.17877732 -198.48413467 1345.31007385 C-198.9821962 1344.6159137 -199.48025772 1343.92175354 -199.99341202 1343.20655823 C-212.26638182 1326.0555117 -223.8158294 1308.40309453 -235.47754288 1290.83448792 C-237.39078244 1287.95315685 -239.30808823 1285.07463337 -241.23096085 1282.19972229 C-246.32982737 1274.57633163 -251.36209508 1266.91642126 -256.29663467 1259.18507385 C-257.3244606 1257.5759613 -257.3244606 1257.5759613 -258.37305069 1255.93434143 C-264.84121931 1245.78573606 -271.20188643 1235.57464646 -277.48413467 1225.31007385 C-278.44440567 1223.74313782 -278.44440567 1223.74313782 -279.42407608 1222.14454651 C-298.6610626 1190.71878521 -317.17518155 1158.87219211 -335.10913467 1126.68507385 C-335.72240616 1125.58985413 -336.33567764 1124.4946344 -336.96753311 1123.3662262 C-339.83250079 1118.21944599 -342.64030212 1113.05673927 -345.28689957 1107.79460144 C-346.20706789 1105.96562862 -347.13796726 1104.14249048 -348.07153702 1102.32032776 C-349.23232666 1100.04091865 -350.36958508 1097.74931574 -351.47876358 1095.4443512 C-352.00389542 1094.42035217 -352.52902725 1093.39635315 -353.07007217 1092.34132385 C-353.51399307 1091.43962463 -353.95791397 1090.53792542 -354.41528702 1089.60890198 C-357.50537953 1086.17530378 -361.1524973 1085.43389986 -365.48413467 1084.31007385 C-366.64076614 1084.00210876 -367.79739761 1083.69414368 -368.98907852 1083.37684631 C-373.28999117 1082.24699701 -377.60369835 1081.16976693 -381.91772842 1080.09132385 C-383.5607683 1079.67778347 -385.20372063 1079.26389515 -386.84659195 1078.84968567 C-390.36156243 1077.96403063 -393.87701247 1077.08031576 -397.3928566 1076.19813538 C-405.89356452 1074.06483329 -414.3914256 1071.92023492 -422.88938332 1069.77600861 C-424.8291554 1069.28658315 -426.76895587 1068.79727017 -428.7087841 1068.30806732 C-447.33479842 1063.61048601 -465.94428739 1058.85040458 -484.54663467 1054.06007385 C-490.6220009 1052.4956706 -496.69746129 1050.93163468 -502.77319717 1049.3686676 C-503.54758888 1049.16943884 -504.32198059 1048.97021008 -505.11983871 1048.76494408 C-518.63870598 1045.28802766 -532.1658006 1041.84391127 -545.69507217 1038.4077301 C-596.01906219 1025.62254623 -646.27361186 1012.60282491 -696.46030045 999.28871155 C-706.94766593 996.50715354 -717.43940364 993.74317448 -727.93725967 991.0014801 C-750.38716227 985.13691878 -772.81834961 979.20629414 -795.19418716 973.0644989 C-797.6129089 972.40161773 -800.0325118 971.74194234 -802.45303726 971.0856781 C-805.76573411 970.18611821 -809.07454737 969.27351777 -812.38257217 968.35694885 C-813.36697784 968.0920314 -814.35138351 967.82711395 -815.36561966 967.5541687 C-816.2650177 967.30184982 -817.16441574 967.04953094 -818.09106827 966.78956604 C-818.87178696 966.57499756 -819.65250565 966.36042908 -820.45688248 966.13935852 C-823.63078779 964.84101438 -825.09198447 963.0700248 -826.64404678 960.06227112 C-827.91648438 957.00391717 -829.18352833 953.94505045 -830.42163467 950.87257385 C-830.90108536 949.68389709 -831.38053604 948.49522034 -831.87451553 947.27052307 C-848.20960821 906.25539896 -858.90621291 863.53490459 -867.48413467 820.31007385 C-867.64184341 819.51764282 -867.79955215 818.72521179 -867.96203995 817.9087677 C-886.58827744 723.89518127 -893.18035459 627.34087617 -901.48413467 377.31007385 C-901.49944229 376.42909531 -901.51474991 375.54811676 -901.53052139 374.64044189 C-902.38076483 325.52888393 -902.63082414 276.42842491 -902.48413467 227.31007385 C-888.28951745 219.83431609 -874.03831408 212.51021058 -859.60913467 205.49757385 C-858.73871536 205.07353271 -857.86829605 204.64949158 -856.9715004 204.21260071 C-841.86608269 196.86027299 -826.65012135 189.7848627 -811.31523514 182.92553711 C-806.85267548 180.92885921 -802.40185183 178.90788072 -797.95679092 176.87257385 C-707.24494886 135.39167236 -612.95177228 100.8215056 -487.48413467 65.31007385 C-486.5123024 65.04321777 -485.54047012 64.77636169 -484.53918839 64.50141907 C-434.77501077 50.85098373 -384.25852513 39.50903919 -333.48413467 30.31007385 C-332.47616837 30.12742981 -331.46820206 29.94478577 -330.42969131 29.75660706 C-261.00504641 17.22978654 -191.04617233 8.32844662 -120.6579628 3.53010559 C-117.53546136 3.31363217 -114.41412014 3.08442808 -111.29272842 2.85255432 C-74.22301195 0.14849053 -37.15149269 0.01947007 0 0 Z " fill="#FFFFFF" transform="translate(1506.4841346740723,477.68992614746094)"/>
<path d="M0 0 C0.66933311 0.00026688 1.33866623 0.00053375 2.02828217 0.00080872 C103.49740641 0.05112926 204.69111036 10.51620292 439.125 70.1875 C440.10764328 70.51089355 440.10764328 70.51089355 441.11013794 70.84082031 C457.4561977 76.23846352 473.58639907 82.27166404 489.75 88.1875 C489.6527916 89.24187759 489.55558319 90.29625519 489.45542908 91.38258362 C484.05945969 149.97898845 479.13558838 208.58448329 474.97083092 267.2815876 C474.00243869 280.92646543 472.94879702 294.56061193 471.75 308.1875 C472.67652374 308.33934753 472.67652374 308.33934753 473.62176514 308.4942627 C481.83274815 309.90714238 489.88028807 311.8695324 497.953125 313.90625 C499.44517994 314.27994877 500.93730848 314.65335378 502.42950439 315.02648926 C506.44807903 316.0323844 510.4654997 317.04281768 514.48269653 318.05419922 C517.88160567 318.90929351 521.2811977 319.7616553 524.68078613 320.61404419 C549.33849519 326.79700499 573.9817256 333.03697696 598.61975098 339.29785156 C621.64943709 345.14987924 644.69496531 350.93619155 667.75 356.6875 C693.61604121 363.14004775 719.46758628 369.64663171 745.30325317 376.21975708 C762.15515806 380.50697063 779.01449305 384.76202839 795.88946915 388.95762444 C798.68234432 389.65205429 801.47508494 390.34702291 804.26779175 391.04212952 C812.39038819 393.06345547 820.51342198 395.08288688 828.63924694 397.09119987 C831.96572972 397.91431456 835.29125283 398.7412571 838.61655617 399.56912231 C840.16025458 399.95251573 841.70437145 400.33422887 843.24893761 400.71411133 C850.56599707 402.51426832 857.77273368 404.29834759 864.75 407.1875 C864.23182811 414.45722509 863.24876752 421.43553985 861.66796875 428.546875 C861.45826447 429.51237778 861.24856018 430.47788055 861.03250122 431.47264099 C860.34293328 434.62959819 859.64156139 437.78374522 858.9375 440.9375 C858.5716127 442.58584335 858.5716127 442.58584335 858.19833374 444.26748657 C845.18162202 502.77185185 828.51898065 560.28118936 809.75 617.1875 C809.45111877 618.09510071 809.15223755 619.00270142 808.84429932 619.93780518 C779.97747419 707.47748452 744.654296 792.85400655 704.3848877 875.7467804 C702.34867902 879.94211248 700.3321406 884.14650021 698.32421875 888.35546875 C692.86212708 899.79662708 687.31430985 911.15735563 681.33203125 922.3359375 C679.42086524 925.90772258 677.55135389 929.49881067 675.69921875 933.1015625 C669.86563952 944.44301498 663.88012578 955.66115234 657.55322266 966.7355957 C653.88706037 973.15441187 650.32413011 979.6205364 646.8125 986.125 C632.16950077 1013.13287783 616.2689951 1039.64585527 599.71801758 1065.53125 C597.82210985 1068.49919382 595.93853944 1071.47418368 594.07006836 1074.45947266 C587.05595579 1085.65795887 579.83336564 1096.70386878 572.48608398 1107.6862793 C570.68270266 1110.38217159 568.88307459 1113.08053951 567.08398438 1115.77929688 C558.16544076 1129.14371103 549.16148314 1142.45012492 539.875 1155.5625 C539.38290039 1156.25762695 538.89080078 1156.95275391 538.38378906 1157.66894531 C536.84162725 1159.84353941 535.29639013 1162.01591108 533.75 1164.1875 C532.98864746 1165.25822754 532.98864746 1165.25822754 532.21191406 1166.35058594 C523.87029602 1178.0604283 515.21995032 1189.51605042 506.47558594 1200.92724609 C504.33749371 1203.72782021 502.22841203 1206.54829573 500.125 1209.375 C490.43754038 1222.3223082 480.37437706 1234.96509234 470.13964844 1247.48193359 C468.24387824 1249.80868176 466.37036479 1252.15280307 464.5 1254.5 C457.87737901 1262.79207337 451.12563723 1270.95543964 444.19458008 1278.99072266 C441.13034233 1282.55079649 438.13439018 1286.15392794 435.1875 1289.8125 C431.08698767 1294.86558144 426.73415243 1299.64059348 422.3125 1304.41015625 C419.64885863 1307.29712121 417.05851652 1310.23673334 414.484375 1313.203125 C411.70834569 1316.37930267 408.87763659 1319.5057983 406.05078125 1322.63671875 C404.5858989 1324.26077337 403.12456169 1325.88803785 401.66796875 1327.51953125 C396.07349553 1333.77828329 390.36512658 1339.92532671 384.62255859 1346.04785156 C382.27431624 1348.55392267 379.9346342 1351.06719051 377.60766602 1353.59301758 C366.8827573 1365.19320707 355.73105329 1376.36075824 344.55004883 1387.51782227 C341.8315972 1390.23051947 339.11774207 1392.94776436 336.40513706 1395.6663065 C334.28181952 1397.79325712 332.15610232 1399.91779668 330.02967644 1402.04163933 C329.02796361 1403.04269349 328.02696953 1404.04446749 327.02676582 1405.0470295 C321.94576133 1410.13740967 316.83759453 1415.12677108 311.36302185 1419.79466248 C309.2118314 1421.6522063 307.22830869 1423.64832027 305.25 1425.6875 C301.98615087 1428.99013851 298.6358581 1432.08800648 295.11328125 1435.109375 C291.93295873 1437.90595612 288.84525548 1440.79742784 285.75 1443.6875 C280.82391465 1448.27843366 275.86787422 1452.81000541 270.75 1457.1875 C269.72779697 1458.06372321 268.70566854 1458.94003345 267.68359375 1459.81640625 C265.91699451 1461.33077815 264.14994871 1462.8446143 262.3815918 1464.35693359 C258.56463836 1467.62311689 254.76568543 1470.90899663 250.97729492 1474.20825195 C245.30355123 1479.14700603 239.59258565 1484.01937715 233.74609375 1488.75390625 C231.41598888 1490.64654684 229.09725118 1492.55038764 226.78515625 1494.46484375 C218.48112213 1501.33965765 210.12268229 1508.12549263 201.61035156 1514.74072266 C199.60996027 1516.29640754 197.61344427 1517.85698255 195.6171875 1519.41796875 C179.93040719 1531.67096646 164.23423022 1543.89679267 147.8984375 1555.27734375 C144.35683122 1557.74778528 140.86627796 1560.28215737 137.38232422 1562.83300781 C126.71322443 1570.63248765 115.74029778 1577.94370196 104.71337891 1585.22509766 C101.91013023 1587.08145891 99.11532149 1588.94965865 96.32421875 1590.82421875 C67.90561386 1609.90528203 38.82273462 1627.92408611 9.06469727 1644.83740234 C7.25576662 1645.89250059 5.49243776 1647.02587483 3.75 1648.1875 C0.07419115 1647.86759297 -2.23930493 1646.78826575 -5.15625 1644.58984375 C-5.88908203 1644.04392578 -6.62191406 1643.49800781 -7.37695312 1642.93554688 C-8.16005859 1642.33806641 -8.94316406 1641.74058594 -9.75 1641.125 C-10.57951172 1640.50302734 -11.40902344 1639.88105469 -12.26367188 1639.24023438 C-14.93386238 1637.23309791 -17.59321261 1635.21233778 -20.25 1633.1875 C-21.11882813 1632.52637207 -21.98765625 1631.86524414 -22.8828125 1631.18408203 C-26.39461687 1628.51026232 -29.90471813 1625.83426165 -33.41015625 1623.15209961 C-39.90923338 1618.18506745 -46.47507516 1613.31726751 -53.07495117 1608.48535156 C-59.12779513 1604.04268898 -65.10247959 1599.50371363 -71.0625 1594.9375 C-76.73058195 1590.59633897 -82.40880482 1586.29335663 -88.25 1582.1875 C-95.0242047 1577.42581812 -101.58207447 1572.39222882 -108.15356445 1567.35595703 C-114.03330109 1562.85661609 -119.96101149 1558.43231248 -125.9375 1554.0625 C-132.95028434 1548.92959618 -139.84250737 1543.66246868 -146.68334961 1538.30297852 C-151.57731045 1534.47299244 -156.5164016 1530.71247571 -161.5 1527 C-168.26800201 1521.95370458 -174.92388938 1516.77961415 -181.54101562 1511.53759766 C-183.24691487 1510.18993725 -184.9583259 1508.84963522 -186.671875 1507.51171875 C-193.60621758 1502.09420217 -200.46587825 1496.59389089 -207.28198242 1491.02832031 C-211.6271477 1487.48660862 -216.01433412 1484.00610914 -220.4375 1480.5625 C-225.61176662 1476.52952959 -230.64985053 1472.36213754 -235.63745117 1468.10107422 C-238.7977659 1465.40410482 -241.99305727 1462.76678852 -245.25 1460.1875 C-250.80152981 1455.78394405 -256.19113715 1451.19511893 -261.58544922 1446.60205078 C-263.200741 1445.22936075 -264.82013635 1443.8617153 -266.44140625 1442.49609375 C-277.73789473 1432.9785115 -288.94227221 1423.36454492 -299.8359375 1413.38671875 C-302.59956436 1410.86904574 -305.40966468 1408.41015414 -308.23046875 1405.95703125 C-311.41561228 1403.16618015 -314.55603494 1400.32620897 -317.69921875 1397.48828125 C-319.32327337 1396.0233989 -320.95053785 1394.56206169 -322.58203125 1393.10546875 C-327.75452018 1388.48196703 -332.8600799 1383.78988252 -337.9375 1379.0625 C-338.55520264 1378.48862549 -339.17290527 1377.91475098 -339.80932617 1377.32348633 C-342.83310184 1374.50008377 -345.80430437 1371.64325319 -348.70703125 1368.6953125 C-350.96152679 1366.42052129 -353.26883952 1364.28590934 -355.71337891 1362.21801758 C-361.5341879 1357.15068884 -366.93063422 1351.65096212 -372.37890625 1346.19140625 C-373.53883055 1345.03215727 -374.69890312 1343.87305663 -375.8591156 1342.71409607 C-378.2787161 1340.29596178 -380.69651971 1337.8760492 -383.11303711 1335.45483398 C-386.19143922 1332.37073528 -389.27431023 1329.29114906 -392.35855198 1326.21289158 C-394.75144869 1323.82362967 -397.14193238 1321.43196486 -399.53172112 1319.03959465 C-400.66674617 1317.90390839 -401.80249819 1316.76894814 -402.93902779 1315.63476753 C-408.43810011 1310.14457195 -413.88925365 1304.6556542 -418.92686462 1298.7308197 C-420.60249888 1296.77634142 -422.39861912 1294.97504016 -424.25 1293.1875 C-427.35246002 1290.12632747 -430.23106424 1286.95607732 -433.0703125 1283.65234375 C-436.06343907 1280.26764328 -439.15843154 1276.9821642 -442.25 1273.6875 C-447.01538976 1268.60045881 -451.72586095 1263.49166302 -456.25 1258.1875 C-457.12477272 1257.1664719 -457.99979699 1256.14565929 -458.875 1255.125 C-460.39078689 1253.35704381 -461.90607027 1251.58867032 -463.41967773 1249.81884766 C-466.68574443 1246.00194518 -469.97157195 1242.20309894 -473.27075195 1238.41479492 C-478.20950603 1232.74105123 -483.08187715 1227.03008565 -487.81640625 1221.18359375 C-489.70904684 1218.85348888 -491.61288764 1216.53475118 -493.52734375 1214.22265625 C-500.40215765 1205.91862213 -507.18799263 1197.56018229 -513.80322266 1189.04785156 C-515.35890754 1187.04746027 -516.91948255 1185.05094427 -518.48046875 1183.0546875 C-542.29764293 1152.56148723 -542.29764293 1152.56148723 -552.7890625 1137.6640625 C-554.55173895 1135.1617814 -556.34177912 1132.68165213 -558.1484375 1130.2109375 C-567.4967679 1117.41493345 -576.4020528 1104.33308172 -585.25 1091.1875 C-585.86520508 1090.27564941 -586.48041016 1089.36379883 -587.11425781 1088.42431641 C-612.54046832 1050.70619685 -636.48666143 1011.91536283 -658.59716797 972.15771484 C-659.75440519 970.07810656 -660.91518562 968.00046782 -662.07861328 965.92431641 C-671.91435306 948.37065148 -681.27751614 930.60858956 -690.4269104 912.68841553 C-693.105217 907.45037082 -695.85429257 902.25221341 -698.625 897.0625 C-703.5745378 887.73017322 -708.11253696 878.21196017 -712.61328125 868.65673828 C-714.12267077 865.45739087 -715.63945853 862.26169191 -717.15859985 859.06697083 C-730.08225085 831.87785539 -730.08225085 831.87785539 -735.75 818.6875 C-736.11754395 817.83397949 -736.48508789 816.98045898 -736.86376953 816.10107422 C-739.25 810.45235426 -739.25 810.45235426 -739.25 808.1875 C-728.56106401 809.77300874 -718.20336327 812.731244 -707.78125 815.515625 C-705.73719633 816.05832525 -703.69303988 816.60063852 -701.64878845 817.14259338 C-696.15607361 818.5998705 -690.66474858 820.06232177 -685.17365646 821.52569962 C-679.42138406 823.05766529 -673.66779465 824.58466785 -667.91430664 826.11206055 C-658.53618154 828.60223069 -649.15872209 831.0948913 -639.78173828 833.58935547 C-625.67029133 837.34300497 -611.55622796 841.08674351 -597.44085693 844.8256073 C-595.65669663 845.29820399 -593.87253728 845.77080425 -592.08837891 846.2434082 C-590.78584293 846.58841826 -590.78584293 846.58841826 -589.4569931 846.94039822 C-583.46700053 848.52740782 -577.47815953 850.11871331 -571.48974609 851.71166992 C-568.20810773 852.58419794 -564.92636773 853.45634246 -561.64453125 854.328125 C-560.85527504 854.53778711 -560.06601883 854.74744923 -559.25284576 854.96346474 C-549.01262612 857.68176452 -538.76172088 860.35393228 -528.49657631 862.97649574 C-524.10851332 864.09929983 -519.72316363 865.23268966 -515.33718872 866.36361694 C-511.9953807 867.21918036 -508.64927359 868.05600004 -505.30249023 868.8918457 C-503.33943881 869.39700906 -501.37661294 869.90305009 -499.4140625 870.41015625 C-498.54452438 870.62061584 -497.67498627 870.83107544 -496.77909851 871.0479126 C-489.80168799 872.88646245 -486.13719002 876.30162234 -482.41015625 882.49609375 C-481.91265869 883.31303711 -481.41516113 884.12998047 -480.90258789 884.97167969 C-480.37785889 885.84727539 -479.85312988 886.72287109 -479.3125 887.625 C-478.14692477 889.53582244 -476.98022404 891.44595871 -475.8125 893.35546875 C-475.21824219 894.3304834 -474.62398437 895.30549805 -474.01171875 896.31005859 C-463.22040521 913.93567131 -451.71688662 931.09815929 -440.2157135 948.26416016 C-437.5424178 952.25422544 -434.87555561 956.2484851 -432.21408081 960.2464447 C-428.46731228 965.87451339 -424.71496889 971.49740724 -420.875 977.0625 C-420.42568115 977.71484619 -419.9763623 978.36719238 -419.51342773 979.03930664 C-414.64983912 986.0835006 -409.70650601 993.07099473 -404.75732422 1000.05517578 C-403.27170102 1002.15680083 -401.79295115 1004.26308293 -400.31640625 1006.37109375 C-393.36688463 1016.2822893 -386.23975687 1026.05102711 -379.03222656 1035.77587891 C-377.26142769 1038.17203661 -375.50028828 1040.57498244 -373.7421875 1042.98046875 C-366.27627703 1053.18533995 -358.62338861 1063.22117095 -350.82373047 1073.17285156 C-348.5521903 1076.08081766 -346.30636951 1079.00816644 -344.0625 1081.9375 C-335.95503883 1092.49049044 -327.71116866 1102.91539776 -319.25 1113.1875 C-317.79155659 1114.97907706 -316.33322483 1116.77074502 -314.875 1118.5625 C-311.08193 1123.20141139 -307.22267593 1127.78000666 -303.34082031 1132.34448242 C-300.39065907 1135.81954115 -297.49350085 1139.33185174 -294.625 1142.875 C-291.05474131 1147.26476647 -287.32117495 1151.46577693 -283.5078125 1155.64453125 C-281.12767687 1158.32527224 -278.87268159 1161.08254134 -276.625 1163.875 C-273.56342275 1167.65944966 -270.40436499 1171.15238014 -266.91015625 1174.53515625 C-265.20615774 1176.23113594 -263.63285917 1177.99239696 -262.0625 1179.8125 C-256.93979058 1185.7398828 -251.58529348 1191.45242173 -246.25 1197.1875 C-245.38859909 1198.11425789 -245.38859909 1198.11425789 -244.50979614 1199.05973816 C-234.71139446 1209.58504055 -224.71124661 1219.88517133 -214.52880859 1230.0390625 C-212.21983764 1232.34259127 -209.91637223 1234.65153136 -207.61328125 1236.9609375 C-206.11750859 1238.45605047 -204.62142636 1239.95085381 -203.125 1241.4453125 C-202.45090088 1242.12143585 -201.77680176 1242.7975592 -201.08227539 1243.49417114 C-197.18429827 1247.37320077 -193.18187156 1251.07082564 -189.00695801 1254.65072632 C-186.45756426 1256.88062663 -184.11654151 1259.26393339 -181.75 1261.6875 C-178.16078381 1265.32523571 -174.49670527 1268.79619984 -170.609375 1272.11328125 C-167.25318739 1275.06383691 -164.00802378 1278.12935254 -160.75 1281.1875 C-156.2707185 1285.38733908 -151.7814415 1289.55445548 -147.125 1293.55859375 C-144.86248819 1295.52415089 -142.65309317 1297.54423309 -140.4375 1299.5625 C-136.99621795 1302.67278851 -133.48678702 1305.65228312 -129.875 1308.5625 C-125.86173184 1311.80702947 -122.02589133 1315.17501465 -118.25 1318.6875 C-113.67064241 1322.94275284 -108.95714569 1326.96072224 -104.0859375 1330.8828125 C-100.99412641 1333.39544135 -97.96556135 1335.97390065 -94.9375 1338.5625 C-89.88804478 1342.86720003 -84.72002014 1346.99099021 -79.48120117 1351.06201172 C-75.4878648 1354.17857317 -71.59749793 1357.39306893 -67.75 1360.6875 C-61.69304364 1365.86440923 -55.47357675 1370.8038174 -49.17919922 1375.68798828 C-47.13743023 1377.27499728 -45.10158876 1378.86939855 -43.06640625 1380.46484375 C-34.08763234 1387.49166692 -25.02827762 1394.40063626 -15.88623047 1401.21386719 C-14.69537842 1402.10187012 -14.69537842 1402.10187012 -13.48046875 1403.0078125 C-12.73716309 1403.55727539 -11.99385742 1404.10673828 -11.22802734 1404.67285156 C-9.25 1406.1875 -9.25 1406.1875 -6.48828125 1408.6796875 C-4.36281585 1410.40944149 -4.36281585 1410.40944149 -1.8125 1410.21484375 C1.47705944 1408.89601123 4.02879032 1406.96625149 6.75 1404.75 C7.90734586 1403.83307297 9.06490381 1402.91641361 10.22265625 1402 C11.10268311 1401.29617188 11.10268311 1401.29617188 12.00048828 1400.578125 C14.70109608 1398.43150735 17.44591431 1396.34381846 20.1875 1394.25 C31.28049834 1385.72360387 42.22428322 1377.02667557 53.06640625 1368.18359375 C56.00603408 1365.78753947 58.96530009 1363.4181009 61.9375 1361.0625 C66.32263134 1357.56763861 70.59875402 1353.95334807 74.8684082 1350.31933594 C78.25406635 1347.44100579 81.67129837 1344.60933119 85.125 1341.8125 C90.82658055 1337.17013906 96.36703326 1332.35242873 101.91015625 1327.5234375 C105.00083391 1324.83228837 108.11138811 1322.16565858 111.23071289 1319.5078125 C117.01649583 1314.57708318 122.69695766 1309.55939502 128.30078125 1304.421875 C131.07770218 1301.88854363 133.90286756 1299.41654628 136.73828125 1296.94921875 C144.34942383 1290.2839269 151.78597639 1283.42188187 159.23535156 1276.57714844 C160.69374405 1275.23911329 162.15540193 1273.90463992 163.6171875 1272.5703125 C174.99239341 1262.18157431 186.37143893 1251.78654952 197.125 1240.75 C199.12905561 1238.79366 201.13918279 1236.98142217 203.26538086 1235.16772461 C208.44437477 1230.65012864 213.2764649 1225.80451178 218.12890625 1220.94140625 C219.10946881 1219.96151947 220.09017959 1218.98178099 221.07102966 1218.00218201 C223.11400213 1215.9606736 225.15518169 1213.91739434 227.19506836 1211.87280273 C229.78919866 1209.27297596 232.38779434 1206.67766627 234.9877634 1204.08368015 C237.01007825 1202.06500604 239.0299719 1200.04392267 241.04917717 1198.0221386 C242.46516246 1196.60517676 243.88313515 1195.19020183 245.30116272 1193.77528381 C249.78329535 1189.27699675 254.14219125 1184.73613078 258.25852966 1179.89915466 C261.26239207 1176.45183495 264.58484789 1173.31213746 267.85546875 1170.12109375 C271.3894563 1166.63844743 274.68489735 1163.01632797 277.92871094 1159.26269531 C281.06477914 1155.68942725 284.35149815 1152.25943241 287.625 1148.8125 C293.42350933 1142.67919301 299.14036242 1136.49425759 304.75 1130.1875 C306.29096076 1128.47852989 307.83263888 1126.77020637 309.375 1125.0625 C316.77344711 1116.83634366 323.97257039 1108.44446918 331.16503906 1100.03857422 C332.71011515 1098.23408148 334.25702979 1096.43118504 335.8046875 1094.62890625 C348.87749398 1079.46030844 348.87749398 1079.46030844 361.54296875 1063.953125 C363.24031845 1061.82618059 364.95090054 1059.71382863 366.67578125 1057.609375 C372.92813668 1049.97681497 379.04557446 1042.26448127 385.01220703 1034.40625 C388.40160046 1029.94301976 391.83395742 1025.51901462 395.3125 1021.125 C404.69574739 1009.23796792 413.64408026 997.03409444 422.4765625 984.734375 C424.6020519 981.77508828 426.742119 978.82751736 428.8984375 975.890625 C437.20919788 964.54314162 445.02912631 952.90020687 452.77880859 941.1640625 C454.66145119 938.32121155 456.55617408 935.48694609 458.45703125 932.65625 C483.01581299 896.0764849 505.48465982 858.17553249 526.12255859 819.25439453 C527.68494762 816.31009046 529.25811183 813.37174509 530.83203125 810.43359375 C538.13755133 796.70763859 544.75202905 782.70587369 551.20361328 768.56103516 C552.63794769 765.43194882 554.09311592 762.31381433 555.55859375 759.19921875 C577.82046076 711.69599242 595.0862373 661.79865118 608.75 611.1875 C609.24258301 609.36412109 609.24258301 609.36412109 609.74511719 607.50390625 C614.97061404 587.91238827 618.92915858 568.09027522 622.75 548.1875 C619.65158149 546.50469414 616.62747315 545.49518586 613.22924805 544.56884766 C612.09627792 544.25781601 610.9633078 543.94678436 609.79600525 543.62632751 C608.5471907 543.28815506 607.29837616 542.9499826 606.01171875 542.6015625 C604.66568004 542.23383809 603.31974076 541.8657495 601.97389221 541.49732971 C598.25300194 540.47996104 594.53066359 539.46798304 590.80805969 538.45690536 C586.77781338 537.3613361 582.74886784 536.26100169 578.71972656 535.16137695 C570.65026503 532.96003562 562.57943227 530.76375991 554.50811958 528.56921673 C547.52861348 526.67147221 540.5495857 524.77197683 533.57080078 522.87158203 C474.97994123 506.91751645 416.37235729 491.0254156 357.75 475.1875 C356.78780296 474.92753738 355.82560593 474.66757477 354.8342514 474.3997345 C323.47826101 465.92816036 292.12064254 457.46262251 260.76213837 449.00035858 C257.80416446 448.20211687 254.8462023 447.40383167 251.88824463 446.60552979 C206.73371158 434.41914587 161.57378503 422.25305566 116.40563965 410.11721802 C88.7170604 402.67773929 61.03290477 395.22204007 33.3523407 387.75279617 C0.86942505 378.98777435 -31.62066996 370.24998348 -64.11767578 361.53735352 C-67.51986393 360.62518945 -70.92204444 359.71299693 -74.32421875 358.80078125 C-75.17122597 358.57368029 -76.01823318 358.34657932 -76.89090729 358.11259651 C-90.47687877 354.46970236 -104.06118086 350.82062349 -117.64453125 347.16796875 C-119.06186491 346.78684024 -119.06186491 346.78684024 -120.50783157 346.39801216 C-125.32917309 345.10149892 -130.15049242 343.80490316 -134.97180176 342.50827026 C-169.90804145 333.11262148 -204.84885298 323.73420195 -239.79405975 314.37195969 C-262.86886624 308.1899388 -285.94279167 302.00471158 -309.01171875 295.80078125 C-309.98513529 295.53900211 -310.95855183 295.27722298 -311.96146584 295.00751114 C-319.74707658 292.91366572 -327.53260084 290.81949875 -335.31805801 288.7250824 C-357.72886146 282.69621904 -380.14202552 276.67640487 -402.5625 270.68359375 C-404.05060905 270.28580688 -404.05060905 270.28580688 -405.5687809 269.8799839 C-415.10039034 267.33220829 -424.63228619 264.7855104 -434.16499138 262.2418375 C-437.61791198 261.32032468 -441.07065159 260.39813498 -444.52336121 259.47583199 C-446.09868944 259.05521739 -447.67410366 258.63492465 -449.24961853 258.21500969 C-454.2522418 256.88167706 -459.25254856 255.54009181 -464.25 254.1875 C-465.06759922 253.96648117 -465.88519844 253.74546234 -466.72757339 253.51774597 C-469.24244061 252.83586867 -471.75581176 252.14873162 -474.26879883 251.45996094 C-475.05227283 251.24776035 -475.83574682 251.03555977 -476.64296246 250.81692886 C-482.13501366 249.30248634 -482.13501366 249.30248634 -483.25 248.1875 C-483.54256085 246.17400207 -483.77214137 244.15133918 -483.97767639 242.12710571 C-484.04386765 241.48725026 -484.11005892 240.84739482 -484.17825598 240.18814981 C-484.40050383 238.0290021 -484.61635631 235.86926178 -484.83227539 233.70947266 C-484.98967876 232.16737576 -485.14746874 230.62531828 -485.30561829 229.08329773 C-485.73521481 224.88328059 -486.15925621 220.68271889 -486.58225942 216.48203325 C-487.02502865 212.09354264 -487.4725721 207.70553892 -487.91954041 203.31747437 C-488.66979544 195.94502204 -489.41669957 188.57223645 -490.16137695 181.19921875 C-491.11778999 171.72999623 -492.07971339 162.26134202 -493.04338932 152.79285622 C-493.87075232 144.66322984 -494.69554339 136.53334283 -495.51994014 128.4034152 C-495.78551303 125.78554555 -496.05144681 123.16771274 -496.3174305 120.5498848 C-496.73506271 116.43792463 -497.15109209 112.32580529 -497.56587029 108.21355629 C-497.71854241 106.70218402 -497.87172591 105.19086332 -498.02545166 103.67959785 C-498.23480643 101.62049119 -498.44230395 99.56120576 -498.64930725 97.50186157 C-498.76599793 96.34815378 -498.88268862 95.19444599 -499.00291538 94.00577736 C-499.25 91.1875 -499.25 91.1875 -499.25 88.1875 C-427.72811049 59.96024094 -352.7557095 40.31785648 -277.25 26.1875 C-276.2972821 26.00872314 -275.34456421 25.82994629 -274.36297607 25.64575195 C-209.96183461 13.60407237 -144.79343857 5.67769042 -79.375 2.0625 C-78.33821609 2.00444687 -78.33821609 2.00444687 -77.28048706 1.94522095 C-51.53772989 0.52856039 -25.77882393 -0.02175394 0 0 Z " fill="#FFFFFF" transform="translate(1502.25,873.8125)"/>
</svg>
